# xmcd CD database file
#
# Track frame offsets:
#	150
#	8970
#	20630
#	33446
#	46974
#	60749
#	69946
#	84797
#	95321
#	109707
#	121199
#	137377
#	151246
#	166051
#	177498
#	187809
#	200110
#	218272
#	233428
#	246924
#	259557
#	270309
#	283582
#	296080
#	308451
#	319603
#	329289
#	345556
#
# Disc length: 4771 seconds
#
# Revision: 0
# Processed by: cddbd v1.5.2PL0 Copyright (c) Steve Scherf et al.
# Submitted via: CDex 1.70beta2
#
DISCID=6d12a11c
DTITLE=Smith, R. Harlan - Cdn. - AB - Original Hits, Orignal Recordings - D2
DYEAR=2006
DGENRE=Country
TTITLE0=Little Children
TTITLE1=Loving You Losing You
TTITLE2=Momma Brown
TTITLE3=Momma's Voice
TTITLE4=More Than I Should Ask
TTITLE5=My Old Daddy
TTITLE6=My Old Home Town
TTITLE7=Old Love Affair
TTITLE8=Our Love Is Worn Out Too
TTITLE9=Rusty Come Back
TTITLE10=She Makes It Easy
TTITLE11=Silver Buckles
TTITLE12=Sleepy Summertime
TTITLE13=Song For Shelly
TTITLE14=Strangers
TTITLE15=Sweet Darlin'
TTITLE16=Tears and Goodbyes
TTITLE17=To Say Goodbye
TTITLE18=Too Much of A Lady
TTITLE19=Universal Girl
TTITLE20=Walk Beside Me
TTITLE21=We've Got the Magic
TTITLE22=What A Feelin'
TTITLE23=Where It All Began
TTITLE24=Wonderin' About Me
TTITLE25=You're Not My Baby
TTITLE26=Yesterdays
TTITLE27=Strangers Again
EXTD=YEAR: 2006
EXTT0=
EXTT1=
EXTT2=
EXTT3=
EXTT4=
EXTT5=
EXTT6=
EXTT7=
EXTT8=
EXTT9=
EXTT10=
EXTT11=
EXTT12=
EXTT13=
EXTT14=
EXTT15=
EXTT16=
EXTT17=
EXTT18=
EXTT19=
EXTT20=
EXTT21=
EXTT22=
EXTT23=
EXTT24=
EXTT25=
EXTT26=
EXTT27=
PLAYORDER=
